<svg viewBox="0 0 65 64" fill="none" xmlns="http://www.w3.org/2000/svg">
<path d="M48.1672 16.0002C46.7005 16.0002 45.4449 15.4779 44.4005 14.4335C43.356 13.3891 42.8338 12.1335 42.8338 10.6668C42.8338 9.20016 43.356 7.94461 44.4005 6.90016C45.4449 5.85572 46.7005 5.3335 48.1672 5.3335C49.6338 5.3335 50.8894 5.85572 51.9338 6.90016C52.9783 7.94461 53.5005 9.20016 53.5005 10.6668C53.5005 12.1335 52.9783 13.3891 51.9338 14.4335C50.8894 15.4779 49.6338 16.0002 48.1672 16.0002ZM45.5005 58.6668V37.3335C45.5005 35.5557 45.0449 33.9557 44.1338 32.5335C43.2227 31.1113 42.056 30.0002 40.6338 29.2002L42.9672 22.3335C43.3227 21.2224 43.9783 20.3335 44.9338 19.6668C45.8894 19.0002 46.9672 18.6668 48.1672 18.6668C49.3672 18.6668 50.4449 19.0002 51.4005 19.6668C52.356 20.3335 53.0116 21.2224 53.3672 22.3335L60.1672 42.6668H53.5005V58.6668H45.5005ZM33.5005 30.6668C32.3894 30.6668 31.4449 30.2779 30.6672 29.5002C29.8894 28.7224 29.5005 27.7779 29.5005 26.6668C29.5005 25.5557 29.8894 24.6113 30.6672 23.8335C31.4449 23.0557 32.3894 22.6668 33.5005 22.6668C34.6116 22.6668 35.556 23.0557 36.3338 23.8335C37.1116 24.6113 37.5005 25.5557 37.5005 26.6668C37.5005 27.7779 37.1116 28.7224 36.3338 29.5002C35.556 30.2779 34.6116 30.6668 33.5005 30.6668ZM14.8338 16.0002C13.3672 16.0002 12.1116 15.4779 11.0672 14.4335C10.0227 13.3891 9.50049 12.1335 9.50049 10.6668C9.50049 9.20016 10.0227 7.94461 11.0672 6.90016C12.1116 5.85572 13.3672 5.3335 14.8338 5.3335C16.3005 5.3335 17.556 5.85572 18.6005 6.90016C19.6449 7.94461 20.1672 9.20016 20.1672 10.6668C20.1672 12.1335 19.6449 13.3891 18.6005 14.4335C17.556 15.4779 16.3005 16.0002 14.8338 16.0002ZM9.50049 58.6668V40.0002H5.50049V24.0002C5.50049 22.5335 6.02271 21.2779 7.06716 20.2335C8.1116 19.1891 9.36716 18.6668 10.8338 18.6668H18.8338C20.3005 18.6668 21.556 19.1891 22.6005 20.2335C23.6449 21.2779 24.1672 22.5335 24.1672 24.0002V40.0002H20.1672V58.6668H9.50049ZM29.5005 58.6668V48.0002H26.8338V37.3335C26.8338 36.2224 27.2227 35.2779 28.0005 34.5002C28.7783 33.7224 29.7227 33.3335 30.8338 33.3335H36.1672C37.2783 33.3335 38.2227 33.7224 39.0005 34.5002C39.7783 35.2779 40.1672 36.2224 40.1672 37.3335V48.0002H37.5005V58.6668H29.5005Z" fill="currentColor"/>
</svg>
