<svg viewBox="0 0 144 144" fill="none" xmlns="http://www.w3.org/2000/svg">
<path d="M51 69C48.5 69 46.375 68.125 44.625 66.375C42.875 64.625 42 62.5 42 60C42 57.5 42.875 55.375 44.625 53.625C46.375 51.875 48.5 51 51 51C53.5 51 55.625 51.875 57.375 53.625C59.125 55.375 60 57.5 60 60C60 62.5 59.125 64.625 57.375 66.375C55.625 68.125 53.5 69 51 69ZM42 132V108H36V84C36 81.5 36.875 79.375 38.625 77.625C40.375 75.875 42.5 75 45 75H57C59.5 75 61.625 75.875 63.375 77.625C65.125 79.375 66 81.5 66 84V108H60V132H42Z" fill="currentColor"/>
<path d="M92 69C89.5 69 87.375 68.125 85.625 66.375C83.875 64.625 83 62.5 83 60C83 57.5 83.875 55.375 85.625 53.625C87.375 51.875 89.5 51 92 51C94.5 51 96.625 51.875 98.375 53.625C100.125 55.375 101 57.5 101 60C101 62.5 100.125 64.625 98.375 66.375C96.625 68.125 94.5 69 92 69Z" fill="currentColor"/>
<path d="M86 132V108H77L86.5 78.5C87.5 76 90 75 92 75C94 75 96.5 76 97.5 78.5L107 108H98V132H86Z" fill="currentColor"/>
</svg>
