<svg viewBox="0 0 144 144" fill="none" xmlns="http://www.w3.org/2000/svg">
<path d="M89.625 66.375C91.375 68.125 93.5 69 96 69C98.5 69 100.625 68.125 102.375 66.375C104.125 64.625 105 62.5 105 60C105 57.5 104.125 55.375 102.375 53.625C100.625 51.875 98.5 51 96 51C93.5 51 91.375 51.875 89.625 53.625C87.875 55.375 87 57.5 87 60C87 62.5 87.875 64.625 89.625 66.375Z" fill="currentColor"/>
<path d="M45.525 32.475C47.875 34.825 50.7 36 54 36C57.3 36 60.125 34.825 62.475 32.475C64.825 30.125 66 27.3 66 24C66 20.7 64.825 17.875 62.475 15.525C60.125 13.175 57.3 12 54 12C50.7 12 47.875 13.175 45.525 15.525C43.175 17.875 42 20.7 42 24C42 27.3 43.175 30.125 45.525 32.475Z" fill="currentColor"/>
<path d="M42 90V132H66V90H75V54C75 50.7 73.825 47.875 71.475 45.525C69.125 43.175 66.3 42 63 42H45C41.7 42 38.875 43.175 36.525 45.525C34.175 47.875 33 50.7 33 54V90H42Z" fill="currentColor"/>
<path d="M87 108V132H105V108H111V84C111 81.5 110.125 79.375 108.375 77.625C106.625 75.875 104.5 75 102 75H90C87.5 75 85.375 75.875 83.625 77.625C81.875 79.375 81 81.5 81 84V108H87Z" fill="currentColor"/>
</svg>
