<svg id="icone" viewBox="0 0 24 24" fill="none" xmlns="http://www.w3.org/2000/svg">
<path d="M22 12C22 10.0222 21.4135 8.08879 20.3147 6.4443C19.2159 4.79981 17.6541 3.51809 15.8268 2.76121C13.9996 2.00433 11.9889 1.8063 10.0491 2.19215C8.10929 2.578 6.32746 3.53041 4.92894 4.92894C3.53041 6.32746 2.578 8.10929 2.19215 10.0491C1.8063 11.9889 2.00433 13.9996 2.76121 15.8268C3.51809 17.6541 4.79981 19.2159 6.4443 20.3147C8.08879 21.4135 10.0222 22 12 22C14.6522 22 17.1957 20.9464 19.0711 19.0711C20.9464 17.1957 22 14.6522 22 12ZM10.2463 15.2836H15.1716L14.8358 17.5224H7.44776L9.2015 6.4403H11.6642L10.2463 15.2836ZM13.4179 10.8806H15.8806L15.5448 13.0821H13.0821L13.4179 10.8806ZM16.5896 6.4403L16.2164 8.64179H13.7537L14.1269 6.4403H16.5896Z" fill="currentColor"/>
</svg>
