<svg id="icone" viewBox="0 0 96 96" fill="none" xmlns="http://www.w3.org/2000/svg">
<path d="M88 48C88 40.0888 85.654 32.3552 81.2588 25.7772C76.8635 19.1992 70.6164 14.0723 63.3073 11.0448C55.9983 8.01733 47.9556 7.2252 40.1964 8.76861C32.4372 10.312 25.3098 14.1216 19.7157 19.7157C14.1216 25.3098 10.312 32.4372 8.76861 40.1964C7.2252 47.9556 8.01733 55.9983 11.0448 63.3073C14.0723 70.6164 19.1992 76.8635 25.7772 81.2588C32.3552 85.654 40.0888 88 48 88C58.6087 88 68.7828 83.7857 76.2843 76.2843C83.7857 68.7828 88 58.6087 88 48ZM40.9851 61.1343H60.6866L59.3433 70.0896H29.7911L36.806 25.7612H46.6567L40.9851 61.1343ZM53.6716 43.5224H63.5224L62.1791 52.3284H52.3284L53.6716 43.5224ZM66.3582 25.7612L64.8657 34.5672H55.0149L56.5075 25.7612H66.3582Z" fill="currentColor"/>
</svg>
