<svg id="icone" viewBox="0 0 24 24" fill="none" xmlns="http://www.w3.org/2000/svg">
<path d="M9.68251 3.56755V4.43354C9.49801 4.5121 9.3135 4.5998 9.10317 4.70393C8.52676 4.9959 7.98314 5.34742 7.4814 5.75262L7.4611 5.76541L7.31535 5.88599C7.16959 6.0084 7.02568 6.13812 6.88546 6.27149C6.74524 6.40486 6.60502 6.55102 6.47771 6.68804C6.42789 6.74102 6.37992 6.794 6.3338 6.84881C6.28767 6.90362 6.28767 6.9018 6.26369 6.9292C6.2397 6.95661 6.17882 7.03151 6.13823 7.08267C6.08472 7.14844 6.03306 7.21421 5.98509 7.27998C5.85023 7.45457 5.72697 7.63766 5.61609 7.82808L4.69358 7.76231C5.80632 5.82751 7.56917 4.3405 9.67513 3.56024L9.68251 3.56755Z" fill="currentColor"/>
<path d="M15.6327 10.4407C15.5995 10.3201 15.557 10.2013 15.5128 10.0753C15.3853 9.74467 15.1977 9.44 14.9593 9.17641C14.723 8.92442 14.439 8.72082 14.1235 8.57716C13.7757 8.42226 13.3977 8.34552 13.0165 8.35244C12.66 8.34245 12.3055 8.40748 11.9763 8.54322C11.6471 8.67896 11.3508 8.88232 11.1069 9.13987C10.5843 9.70684 10.2607 10.4259 10.1844 11.1897H15.046C15.1386 11.1906 15.2303 11.1702 15.3137 11.1302C15.3971 11.0902 15.47 11.0317 15.5268 10.9592C15.5836 10.8867 15.6227 10.8022 15.6411 10.7122C15.6594 10.6223 15.6566 10.5293 15.6327 10.4407Z" fill="currentColor"/>
<path d="M7.7231 6.27331C7.185 6.73343 6.72905 7.28004 6.37439 7.89019L7.28398 7.95597C7.52568 7.46999 8.43158 6.6113 9.68251 5.9883V5.1351C8.965 5.39356 8.30103 5.77926 7.7231 6.27331Z" fill="currentColor"/>
<path d="M18.3412 18.0957C17.7161 19.1347 16.8503 20.0114 15.8153 20.6535C15.5718 20.8033 15.3633 20.9148 15.2249 20.9842C11.5515 22.6614 7.42974 22.2923 4.81904 19.7053C2.93896 17.8418 2.22125 15.2073 2.59579 12.5198C2.61055 12.4175 2.62716 12.3133 2.64561 12.2092C2.66406 12.105 2.68435 11.9899 2.70649 11.8803C2.77476 11.5442 2.86147 11.208 2.96295 10.8755C2.99616 10.7659 3.03306 10.6562 3.06811 10.5466C3.22599 10.0929 3.41082 9.64875 3.62162 9.21659C3.72679 8.99917 3.83933 8.78359 3.95741 8.57349L8.21941 8.87677C8.12346 9.07408 8.0349 9.2787 7.95188 9.48881C7.87873 9.68486 7.81713 9.88494 7.76738 10.0881C7.75493 10.1282 7.74507 10.1691 7.73786 10.2105C7.7235 10.2572 7.7124 10.3048 7.70465 10.353C7.66037 10.5545 7.6265 10.7582 7.60317 10.9632C7.57243 11.2264 7.55764 11.4912 7.55889 11.7561V11.7963C7.55889 11.9004 7.55889 12.0027 7.55889 12.105C7.55889 12.2074 7.56996 12.3152 7.58103 12.4284C7.63032 13.021 7.769 13.603 7.99247 14.1549C8.2677 14.8366 8.67655 15.4575 9.19542 15.9819C9.70732 16.4899 10.3164 16.8918 10.9869 17.164C11.6964 17.4448 12.4535 17.5887 13.2176 17.5878C13.7711 17.5878 15.1013 17.5878 16.3541 16.7876C17.2323 16.2395 17.701 15.5252 18.4408 15.6494C18.627 15.6688 18.7993 15.756 18.9242 15.8942C19.3486 16.4332 18.6419 17.597 18.3412 18.0957Z" fill="currentColor"/>
<path d="M9.68251 2V2.87695C9.43343 2.97926 9.15483 3.09802 8.85409 3.24235C8.03189 3.64422 7.26132 4.14228 6.55889 4.72586L6.53306 4.7423C6.46479 4.79894 6.39468 4.85558 6.32826 4.925C6.12654 5.09796 5.92605 5.28066 5.72679 5.4731C5.52752 5.66554 5.33933 5.86529 5.16221 6.07235C5.0921 6.14908 5.02568 6.22399 4.96295 6.30438L4.8707 6.41582C4.80797 6.49073 4.75077 6.56381 4.69542 6.63689C4.69542 6.63689 4.69542 6.64602 4.6862 6.64785C4.6124 6.74102 4.54044 6.83055 4.47217 6.93286C4.27291 7.20691 4.10317 7.48095 3.95003 7.72029L3.02752 7.65452C3.59889 6.64051 4.30919 5.70967 5.13823 4.88846C6.42078 3.60734 7.97218 2.62122 9.68251 2Z" fill="currentColor"/>
<path d="M19.5054 12.032C19.5046 12.0356 19.5046 12.0393 19.5054 12.0429C19.4113 12.1507 19.2766 12.3079 19.1105 12.4906C18.775 12.8791 18.4183 13.2493 18.0423 13.5995C18.0272 13.6151 18.0112 13.6297 17.9943 13.6434L17.9648 13.6708C17.9588 13.6771 17.952 13.6827 17.9445 13.6872L17.8486 13.7694C17.8301 13.7859 17.819 13.8005 17.8153 13.8005C17.5294 14.0344 17.2618 14.2372 17.0072 14.4071H16.9962C16.5792 14.6793 15.1622 15.6037 13.4039 15.569C12.8735 15.5713 12.3495 15.4552 11.8707 15.2292C11.6655 15.1294 11.4723 15.0068 11.2951 14.8638C10.7157 14.3924 10.3541 13.7183 10.2157 12.8322H16.7065C16.8121 12.8352 16.9178 12.8278 17.022 12.8103C17.4016 12.7336 17.7478 12.5421 18.0128 12.2622C18.5663 11.6538 18.2526 10.6033 18.057 9.91268C17.8569 9.23654 17.5163 8.60926 17.057 8.07108C16.2991 7.16823 15.2304 6.57531 14.057 6.4067C13.9685 6.39208 13.8725 6.38112 13.7895 6.37381C13.7065 6.3665 13.6548 6.35737 13.5847 6.35371C13.5146 6.35006 13.45 6.34275 13.3855 6.34275C13.2877 6.34275 13.188 6.34275 13.0847 6.34275C12.9814 6.34275 12.8818 6.34275 12.7877 6.34275C12.6936 6.34275 12.6161 6.35189 12.5312 6.3592H12.4925C12.4168 6.3592 12.3449 6.37564 12.2711 6.3866C12.1548 6.40304 12.0534 6.42131 11.9611 6.43776L11.8799 6.4542C11.7748 6.47612 11.6954 6.49805 11.6604 6.50718C11.5644 6.53093 11.4759 6.55834 11.3818 6.58757C11.2173 6.63956 11.056 6.70055 10.8984 6.77027L10.867 6.78671C10.7803 6.82508 10.6954 6.86344 10.6142 6.90546V2.92446C10.7563 2.87148 10.8965 2.82581 11.0404 2.78196C11.0645 2.77296 11.0892 2.76564 11.1142 2.76004C11.2231 2.7235 11.332 2.69244 11.4408 2.66503C11.5146 2.64311 11.5884 2.62301 11.6641 2.60657C11.6789 2.60063 11.6944 2.59634 11.7102 2.59378C14.8043 1.81731 17.9574 2.45676 20.0958 4.57423C20.385 4.86005 20.6503 5.16861 20.8891 5.49686C20.8891 5.49686 20.9021 5.51513 20.9113 5.52609C21.0701 5.76907 21.1995 6.02968 21.2969 6.30256C22.057 8.42369 20.5128 10.7695 19.5054 12.032Z" fill="currentColor"/>
</svg>
