<svg viewBox="0 0 96 96" fill="none" xmlns="http://www.w3.org/2000/svg">
<path d="M38.73 14.268V17.7314C37.992 18.0456 37.254 18.3963 36.4127 18.8128C34.107 19.9805 31.9326 21.3864 29.9256 23.007L29.8444 23.0581L29.2614 23.5404C28.6784 24.0299 28.1027 24.5487 27.5419 25.0821C26.981 25.6155 26.4201 26.2 25.9109 26.748C25.7116 26.9599 25.5197 27.1718 25.3352 27.391C25.1507 27.6102 25.1507 27.6029 25.0548 27.7125C24.9588 27.8221 24.7153 28.1217 24.5529 28.3263C24.3389 28.5894 24.1323 28.8524 23.9404 29.1155C23.4009 29.8137 22.9079 30.5459 22.4644 31.3075L18.7743 31.0445C23.2253 23.3064 30.2767 17.3593 38.7005 14.2388L38.73 14.268Z" fill="currentColor"/>
<path d="M62.5308 41.7563C62.3979 41.2741 62.2282 40.7991 62.0511 40.295C61.5413 38.9727 60.7909 37.7542 59.8371 36.7C58.8918 35.6922 57.756 34.8779 56.4939 34.3034C55.103 33.6839 53.5908 33.377 52.0658 33.4046C50.6401 33.3647 49.222 33.6248 47.9053 34.1676C46.5886 34.7105 45.4032 35.5238 44.4275 36.5539C42.3371 38.8214 41.0427 41.697 40.7374 44.7521H60.1839C60.5546 44.7555 60.921 44.6741 61.2547 44.5141C61.5883 44.3542 61.8801 44.1201 62.1072 43.8301C62.3344 43.5401 62.4908 43.202 62.5643 42.8423C62.6378 42.4826 62.6263 42.1109 62.5308 41.7563Z" fill="currentColor"/>
<path d="M30.8924 25.0894C28.74 26.9296 26.9162 29.1157 25.4976 31.5559L29.1359 31.819C30.1027 29.8754 33.7263 26.4412 38.73 23.9495V20.5373C35.86 21.5709 33.2041 23.1135 30.8924 25.0894Z" fill="currentColor"/>
<path d="M73.3647 72.3718C70.8643 76.527 67.4012 80.0334 63.2614 82.6014C62.2872 83.2005 61.4533 83.6463 60.8998 83.9239C46.2061 90.6316 29.719 89.1556 19.2762 78.8091C11.7559 71.3562 8.88504 60.8198 10.3832 50.0714C10.4422 49.6622 10.5087 49.2458 10.5825 48.8293C10.6563 48.4128 10.7374 47.9524 10.826 47.514C11.0991 46.1696 11.4459 44.8251 11.8518 43.4953C11.9847 43.0569 12.1323 42.6185 12.2725 42.1801C12.904 40.3653 13.6433 38.5891 14.4865 36.8607C14.9072 35.9912 15.3574 35.129 15.8297 34.2887L32.8777 35.5016C32.4939 36.2908 32.1396 37.1091 31.8075 37.9494C31.515 38.7335 31.2685 39.5337 31.0695 40.346C31.0197 40.5066 30.9803 40.6701 30.9515 40.8356C30.894 41.0223 30.8496 41.2128 30.8186 41.4055C30.6415 42.2117 30.506 43.0262 30.4127 43.846C30.2897 44.8986 30.2306 45.9576 30.2356 47.0172V47.1779C30.2356 47.5944 30.2356 48.0036 30.2356 48.4128C30.2356 48.822 30.2799 49.2531 30.3241 49.7061C30.5213 52.0762 31.076 54.4037 31.9699 56.611C33.0708 59.3373 34.7062 61.8207 36.7817 63.9178C38.8293 65.9496 41.2655 67.5567 43.9478 68.6454C46.7855 69.7686 49.8141 70.344 52.8703 70.3405C55.0843 70.3405 60.4053 70.3405 65.4164 67.1402C68.9293 64.9481 70.8039 62.0911 73.7633 62.588C74.5082 62.6655 75.1973 63.0145 75.6968 63.5671C77.3943 65.7226 74.5677 70.3771 73.3647 72.3718Z" fill="currentColor"/>
<path d="M38.73 7.99878V11.5061C37.7337 11.9152 36.6193 12.3902 35.4164 12.9674C32.1276 14.5747 29.0453 16.5666 26.2356 18.9006L26.1322 18.9663C25.8592 19.1928 25.5787 19.4193 25.3131 19.697C24.5062 20.3887 23.7042 21.1194 22.9072 21.889C22.1101 22.6587 21.3573 23.4576 20.6489 24.2857C20.3684 24.5926 20.1027 24.8921 19.8518 25.2136L19.4828 25.6594C19.2319 25.9589 19.0031 26.2512 18.7817 26.5435C18.7817 26.5435 18.7817 26.58 18.7448 26.5873C18.4496 26.96 18.1618 27.318 17.8887 27.7272C17.0917 28.8232 16.4127 29.9192 15.8001 30.8764L12.1101 30.6134C14.3956 26.558 17.2368 22.8352 20.5529 19.5509C25.6831 14.4271 31.8887 10.4833 38.73 7.99878Z" fill="currentColor"/>
<path d="M78.0216 48.1205C78.0186 48.135 78.0186 48.1499 78.0216 48.1644C77.6452 48.5955 77.1064 49.2239 76.4422 49.9546C75.0999 51.5083 73.6734 52.9889 72.1692 54.3898C72.1087 54.4519 72.0447 54.5105 71.9773 54.5652L71.8592 54.6748C71.8352 54.7002 71.8079 54.7223 71.778 54.7405L71.3942 55.0693C71.3204 55.1351 71.2762 55.1935 71.2614 55.1935C70.1175 56.1288 69.0474 56.9399 68.0289 57.6194H67.9847C66.3168 58.7081 60.6489 62.4054 53.6156 62.2665C51.4942 62.2757 49.3979 61.8112 47.4828 60.9075C46.6619 60.5082 45.8894 60.018 45.1802 59.4461C42.8629 57.561 41.4164 54.8647 40.8629 51.3209H66.826C67.2485 51.3328 67.6712 51.3034 68.088 51.2333C69.6064 50.9265 70.9912 50.1605 72.0511 49.0412C74.2651 46.608 73.0105 42.4066 72.2282 39.6446C71.4277 36.9405 70.0652 34.4318 68.2282 32.2794C65.1965 28.6685 60.9216 26.2972 56.2282 25.6229C55.874 25.5644 55.4902 25.5206 55.1581 25.4913C54.826 25.4621 54.6193 25.4256 54.3389 25.411C54.0585 25.3963 53.8002 25.3671 53.5419 25.3671C53.1507 25.3671 52.7522 25.3671 52.3389 25.3671C51.9256 25.3671 51.5271 25.3671 51.1507 25.3671C50.7743 25.3671 50.4644 25.4036 50.1249 25.4329H49.9699C49.6673 25.4329 49.3795 25.4986 49.0843 25.5425C48.6193 25.6082 48.2134 25.6813 47.8444 25.7471L47.5197 25.8128C47.099 25.9005 46.7817 25.9882 46.6415 26.0247C46.2577 26.1197 45.9035 26.2293 45.5271 26.3462C44.8694 26.5542 44.2239 26.7981 43.5935 27.0769L43.468 27.1427C43.1212 27.2961 42.7817 27.4496 42.457 27.6176V11.6961C43.0252 11.4842 43.5861 11.3015 44.1618 11.1261C44.258 11.0901 44.3566 11.0608 44.457 11.0384C44.8924 10.8923 45.3278 10.7681 45.7633 10.6585C46.0585 10.5708 46.3537 10.4904 46.6562 10.4247C46.7156 10.4009 46.7775 10.3837 46.8407 10.3735C59.2171 7.26813 71.8297 9.82551 80.3832 18.2941C81.5399 19.4372 82.6012 20.6712 83.5566 21.9841C83.5566 21.9841 83.6083 22.0571 83.6452 22.101C84.2803 23.0727 84.798 24.115 85.1876 25.2064C88.2282 33.6896 82.0511 43.0715 78.0216 48.1205Z" fill="currentColor"/>
</svg>
