<svg id="icone" viewBox="0 0 24 24" fill="none" xmlns="http://www.w3.org/2000/svg">
<path d="M7.13445 8.24341C6.60043 8.89016 6.23195 9.59729 6.03026 10.365C5.82773 11.1327 5.7789 11.9345 5.88312 12.7694C5.98714 13.605 6.23385 14.4235 6.62305 15.2249C7.01247 16.0266 7.51097 16.7429 8.11919 17.3747C8.73692 18.1713 10.0178 19.0834 11.6277 19.4814C13.2052 19.8712 15.1031 19.7613 16.5774 19.183C21.6161 17.2068 22.4032 12.2687 21.847 9.56492C21.5605 8.17099 20.5728 6.19712 18.8689 4.6345C17.2668 3.16629 14.9352 2.00952 12.5203 2.00371C7.53718 1.99189 4.36014 4.81066 3.00543 7.64811C1.62388 10.5414 1.80273 12.985 2.71855 15.7619C3.20521 17.2373 4.79014 19.2714 6.85687 20.6143C8.29381 21.5482 11.0311 22.0931 12.522 21.9916C15.5603 21.7843 17.0098 20.7008 17.0098 20.7008C17.0098 20.7008 14.3678 21.3156 12.8093 21.2926C11.8789 21.2787 7.15834 21.1764 4.70177 15.3512C3.18407 11.7519 4.5762 9.23148 5.1155 8.28345C5.6548 7.33522 6.78309 5.81866 9.25741 4.88432C11.2967 4.11411 12.9695 4.21475 14.5549 4.79427C16.14 5.37359 17.6977 6.57725 18.7386 8.45235C19.7794 10.3275 19.66 11.2199 19.65 11.9152C19.6399 12.6103 19.3035 14.579 17.3243 16.0086C15.2663 17.4955 11.5081 17.633 9.69376 14.6794L18.1137 10.6522C17.5334 9.45765 16.8886 8.50817 16.1791 7.80352C15.4701 7.0993 14.7284 6.60132 13.9551 6.30938C13.1822 6.01785 12.3945 5.90954 11.593 5.98548C10.7912 6.06163 10.0075 6.2824 9.24325 6.648C8.3714 7.06485 7.66804 7.59666 7.13445 8.24341ZM12.6186 8.70943C13.3167 8.94431 13.9029 9.39519 14.3781 10.0625L8.73439 12.7613C8.52065 11.8948 8.58048 11.1159 8.91451 10.4252C9.2479 9.73465 9.75929 9.22464 10.4474 8.89514C11.1964 8.53701 11.9203 8.47518 12.6186 8.70943Z" fill="currentColor"/>
</svg>
