<svg id="icone" viewBox="0 0 96 96" fill="none" xmlns="http://www.w3.org/2000/svg">
<path d="M28.5378 32.9589C26.4017 35.5459 24.9278 38.3745 24.1211 41.4453C23.3109 44.5162 23.1156 47.7232 23.5325 51.063C23.9485 54.4053 24.9354 57.6795 26.4922 60.8848C28.0499 64.0918 30.0439 66.9569 32.4768 69.4841C34.9477 72.6704 40.0714 76.3189 46.5109 77.9108C52.821 79.4703 60.4122 79.0304 66.3097 76.7173C86.4645 68.8127 89.6128 49.0603 87.3879 38.245C86.2421 32.6693 82.2913 24.7738 75.4755 18.5233C69.0673 12.6505 59.7408 8.02339 50.0811 8.00015C30.1487 7.95284 17.4406 19.2279 12.0217 30.5777C6.49552 42.1508 7.21093 51.9253 10.8742 63.0328C12.8209 68.9347 19.1606 77.0708 27.4275 82.4424C33.1752 86.1781 44.1245 88.3576 50.0879 87.9517C62.2413 87.1226 68.039 82.7885 68.039 82.7885C68.039 82.7885 57.4711 85.2477 51.2371 85.1556C47.5155 85.0999 28.6334 84.6908 18.8071 61.3903C12.7363 46.9928 18.3048 36.9112 20.462 33.1191C22.6192 29.3262 27.1324 23.2599 37.0296 19.5226C45.1866 16.4417 51.8781 16.8443 58.2195 19.1624C64.5601 21.4796 70.7907 26.2943 74.9546 33.7947C79.1176 41.2951 78.6399 44.8648 78.6001 47.646C78.5595 50.4264 77.2141 58.3011 69.2973 64.0196C61.0651 69.9672 46.0323 70.5174 38.775 58.7028L72.4549 42.594C70.1336 37.8159 67.5545 34.018 64.7165 31.1994C61.8803 28.3825 58.9138 26.3906 55.8205 25.2228C52.7288 24.0567 49.578 23.6235 46.3722 23.9272C43.1647 24.2318 40.0299 25.1149 36.973 26.5773C33.4856 28.2447 30.6722 30.3719 28.5378 32.9589ZM50.4744 34.823C53.2666 35.7625 55.6116 37.5661 57.5126 40.2352L34.9375 51.0306C34.0826 47.5647 34.3219 44.449 35.658 41.686C36.9916 38.9239 39.0372 36.8838 41.7897 35.5658C44.7858 34.1333 47.6812 33.886 50.4744 34.823Z" fill="currentColor"/>
</svg>
