<svg id="icone" viewBox="0 0 96 96" fill="none" xmlns="http://www.w3.org/2000/svg">
<path d="M74.5926 20.8113H62.208V32.9657H74.5926V20.8113Z" fill="currentColor"/>
<path d="M82.4307 9.9816H76.416V15.8845H82.4307V9.9816Z" fill="currentColor"/>
<path d="M88.0192 21.8571H81.152V28.5966H88.0192V21.8571Z" fill="currentColor"/>
<path d="M80.56 36.01H70.7328V45.6545H80.56V36.01Z" fill="currentColor"/>
<path d="M79.0208 48.3271H67.6544V36.0101H58.8928V19.7423C51.9475 16.465 44.1045 15.4933 36.5472 16.9739C28.9899 18.4545 22.1282 22.3071 16.9975 27.9503C11.8667 33.5936 8.74526 40.7214 8.10402 48.2583C7.46278 55.7952 9.33656 63.3323 13.4426 69.7325C17.5487 76.1327 23.6644 81.0487 30.8669 83.7388C38.0693 86.4289 45.9679 86.7471 53.3708 84.6456C60.7738 82.544 67.2795 78.1366 71.9064 72.0883C76.5333 66.04 79.0303 58.679 79.0208 51.1159C79.0208 50.1863 79.0208 49.2567 79.0208 48.3271ZM45.3952 77.3767C44.3749 77.5161 43.3468 77.5937 42.3168 77.6091C36.934 77.7863 31.6614 76.086 27.4347 72.8101C23.208 69.5341 20.3007 64.8945 19.2288 59.7145C18.096 53.8082 19.1811 47.699 22.2835 42.5172C23.7472 39.8926 25.7623 37.603 28.1953 35.8002C30.6284 33.9973 33.4239 32.7222 36.3968 32.0593C39.1592 31.5553 41.9987 31.6258 44.7316 32.2663C47.4646 32.9068 50.0301 34.103 52.2624 35.7777C54.0105 37.0213 55.4652 38.6198 56.5276 40.4645C57.59 42.3091 58.2352 44.3567 58.4192 46.4679C58.6583 48.1099 58.5504 49.7826 58.1023 51.3818C57.6542 52.9811 56.8754 54.4727 55.8144 55.7638C54.6287 56.892 53.2156 57.7643 51.6659 58.3247C50.1162 58.885 48.4642 59.1209 46.816 59.0174H29.7664V54.137H46.816C47.8058 54.218 48.8019 54.0944 49.7401 53.7742C50.6782 53.4539 51.5375 52.9442 52.2624 52.2778C52.8236 51.4702 53.2171 50.5618 53.4202 49.6048C53.6234 48.6477 53.6323 47.6608 53.4464 46.7003C53.3119 45.3259 52.8839 43.9948 52.1903 42.7935C51.4967 41.5923 50.5531 40.5479 49.4208 39.7284C47.7437 38.5049 45.8212 37.6444 43.7802 37.2037C41.7393 36.7631 39.6263 36.7523 37.5808 37.1721C35.3049 37.6652 33.1605 38.6237 31.2877 39.9853C29.4148 41.3468 27.8555 43.0806 26.7117 45.0736C24.257 49.212 23.4156 54.0839 24.3437 58.785C26.1907 67.8484 34.5024 73.6583 44.6848 72.4964C47.8659 71.9402 50.8708 70.6633 53.4607 68.7671C56.0505 66.8709 58.1538 64.4078 59.6032 61.5737L64.3392 63.8977C62.518 67.4734 59.8453 70.5654 56.5476 72.9118C53.2498 75.2582 49.4243 76.7898 45.3952 77.3767Z" fill="currentColor"/>
</svg>
