<svg viewBox="0 0 96 96" fill="none" xmlns="http://www.w3.org/2000/svg">
<path fill-rule="evenodd" clip-rule="evenodd" d="M76.7821 31.6875C76.7821 31.6875 74.0761 41.2526 72.5249 46.1326C73.0955 48.2084 73.4001 50.3911 73.4001 52.6435C73.4001 66.4498 61.9462 77.6428 47.8166 77.6428C33.687 77.6428 22.2331 66.449 22.2331 52.6435C22.2331 39.1086 33.2384 28.086 46.9815 27.6555C46.9815 23.3728 46.9823 17.6569 46.9823 17.6569C27.5709 18.1821 12 33.7246 12 52.8209C12 72.249 28.118 88 47.9992 88C67.8812 88 84 72.249 84 52.8209C84.0008 44.8897 81.3137 37.5716 76.7821 31.6875ZM60.5936 43.7142H68.4276L73.0349 28.5362V8H51.8374V28.5354H62.3835L60.5936 43.7142Z" fill="currentColor"/>
</svg>
