<svg id="icone" viewBox="0 0 24 24" fill="none" xmlns="http://www.w3.org/2000/svg">
<path fill-rule="evenodd" clip-rule="evenodd" d="M19.1955 7.92554C19.1955 7.92554 18.519 10.3168 18.1312 11.5368C18.2739 12.0558 18.35 12.6015 18.35 13.1646C18.35 16.6161 15.4866 19.4144 11.9542 19.4144C8.42175 19.4144 5.55828 16.6159 5.55828 13.1646C5.55828 9.78082 8.3096 7.02518 11.7454 6.91756C11.7454 5.84687 11.7456 4.4179 11.7456 4.4179C6.89273 4.5492 3 8.43483 3 13.2089C3 18.0659 7.02951 22.0037 11.9998 22.0037C16.9703 22.0037 21 18.0659 21 13.2089C21.0002 11.2261 20.3284 9.39658 19.1955 7.92554ZM15.1484 10.9322H17.1069L18.2587 7.13773V2.00368H12.9594V7.13754H15.5959L15.1484 10.9322Z" fill="currentColor"/>
</svg>
