<svg id="icone" viewBox="0 0 24 24" fill="none" xmlns="http://www.w3.org/2000/svg">
<path d="M6.14893 18.5983C6.14893 18.8744 6.37278 19.0983 6.64893 19.0983H8.64893C8.92507 19.0983 9.14893 18.8744 9.14893 18.5983V13.5983C9.14893 13.3221 9.37278 13.0983 9.64893 13.0983H14.6489C14.9251 13.0983 15.1489 13.3221 15.1489 13.5983V18.5983C15.1489 18.8744 15.3728 19.0983 15.6489 19.0983H17.6489C17.9251 19.0983 18.1489 18.8744 18.1489 18.5983V10.3483C18.1489 10.1909 18.0748 10.0427 17.9489 9.94827L12.4489 5.82327C12.2711 5.68993 12.0267 5.68993 11.8489 5.82327L6.34893 9.94827C6.22302 10.0427 6.14893 10.1909 6.14893 10.3483V18.5983ZM6.14893 21.0983C5.04436 21.0983 4.14893 20.2028 4.14893 19.0983V10.0983C4.14893 9.46875 4.44531 8.87598 4.94893 8.49827L10.9489 3.99827C11.66 3.46493 12.6378 3.46493 13.3489 3.99827L19.3489 8.49827C19.8525 8.87598 20.1489 9.46875 20.1489 10.0983V19.0983C20.1489 20.2028 19.2535 21.0983 18.1489 21.0983H15.1489C14.0444 21.0983 13.1489 20.2028 13.1489 19.0983V16.0983C13.1489 15.546 12.7012 15.0983 12.1489 15.0983C11.5966 15.0983 11.1489 15.546 11.1489 16.0983V19.0983C11.1489 20.2028 10.2535 21.0983 9.14893 21.0983H6.14893Z" fill="currentColor"/>
</svg>
