<svg viewBox="0 0 96 96" fill="none" xmlns="http://www.w3.org/2000/svg">
<path d="M31.7087 26.2578C43.2287 14.0944 55.0862 8.01268 67.2812 8.01268C71.1387 7.86495 74.9344 9.01156 78.0608 11.269C79.3798 12.3828 80.4207 13.7875 81.1011 15.3717C81.7814 16.9559 82.0825 18.6762 81.9806 20.3965C81.9806 28.8629 77.0808 35.7012 67.2812 41.7579C57.9439 47.4819 47.4851 51.146 36.6085 52.5038L31.3821 53.155C30.7288 55.543 30.2932 57.3883 30.0754 58.6908C29.6669 60.5087 29.4479 62.3638 29.4221 64.2265C29.3493 66.447 29.7817 68.6552 30.6868 70.6854C31.5919 72.7156 32.9464 74.5152 34.6486 75.9493C37.92 78.7417 42.1018 80.247 46.4081 80.1825C51.2689 80.0223 55.9967 78.56 60.0949 75.9493C64.3278 73.1888 68.3659 70.1424 72.181 66.8316L74.4676 68.7854C71.2505 72.645 67.5129 76.0421 63.3614 78.88C55.8563 84.61 46.7132 87.8041 37.2618 87.9977C34.2429 88.0408 31.2454 87.4875 28.4421 86.3697C25.6389 85.2519 23.0854 83.5917 20.9292 81.485C18.5346 79.0499 16.6841 76.137 15.4996 72.9379C14.3151 69.7389 13.8232 66.3261 14.0564 62.924C14.0564 50.3329 19.8316 38.0023 31.3821 25.9322M59.7682 37.655C66.519 31.5765 69.8945 25.498 69.8945 19.4196C70.0653 17.5853 69.6044 15.7478 68.5878 14.2095C68.0305 13.5517 67.3269 13.0326 66.5331 12.6934C65.7392 12.3543 64.8769 12.2044 64.0147 12.2557C59.8311 12.4461 55.8699 14.1882 52.9085 17.1401C49.2499 20.3365 45.9727 23.9422 43.1416 27.886C40.3403 32.1756 37.935 36.7096 35.9552 41.4323C34.9752 43.7117 33.6686 46.3168 32.6887 49.2475C42.549 48.0647 51.8477 44.0354 59.4416 37.655" fill="currentColor"/>
</svg>
