<svg viewBox="0 0 48 48" fill="none" xmlns="http://www.w3.org/2000/svg">
<path d="M35.9908 20.9588V22.4674L37.4414 22.8818C38.081 23.0646 39.251 23.8017 40.284 25.1473C41.2801 26.4449 42 28.1212 42 30C42 33.5399 38.9336 36 35.9381 36H14.0003C11.8092 36 9.82969 35.4007 8.42453 34.1974C7.07011 33.0376 6.02183 31.1242 6.00032 27.9863C5.97329 24.041 7.38064 22.2093 8.82949 21.2522C10.4311 20.1942 12.4704 19.9515 14.0003 19.9515H15.6399L15.9614 18.3437C16.4215 16.0436 19.8108 12 26.0001 12C31.9384 12 35.9908 17.0553 35.9908 20.9588Z" stroke="currentColor" stroke-width="4" fill="none"/>
</svg>
