<svg viewBox="0 0 48 48" fill="none" xmlns="http://www.w3.org/2000/svg">
<path d="M37.998 33.999C37.9985 35.1039 37.1029 36 35.998 36L18 36C16.8954 36 16 35.1046 16 34L16 8C16 6.89543 16.8954 6 18 6L29.0293 6C29.499 6.00005 29.9519 6.16489 30.3096 6.46289L30.4561 6.59863L37.418 13.6924C37.739 14.0195 37.937 14.4452 37.9814 14.8975L37.9902 15.0928L37.998 33.999Z" stroke="currentColor" stroke-width="4" fill="none"/>
<path d="M28 6V12C28 14.2091 29.7909 16 32 16H38" stroke="currentColor" stroke-width="4" fill="none"/>
<path fill-rule="evenodd" clip-rule="evenodd" d="M30 42.0034C30 43.108 29.1046 44.0034 28 44.0034L14 44.0034C10.6863 44.0034 8 41.3171 8 38.0034L8 24.0034C8 22.8988 8.89543 22.0034 10 22.0034C11.1046 22.0034 12 22.8988 12 24.0034L12 38.0034C12 39.108 12.8954 40.0034 14 40.0034L28 40.0034C29.1046 40.0034 30 40.8988 30 42.0034Z" fill="currentColor"/>
</svg>
