<svg viewBox="0 0 48 48" fill="none" xmlns="http://www.w3.org/2000/svg">
<path fill-rule="evenodd" clip-rule="evenodd" d="M8.00001 26C9.10458 26 8.00001 25.9974 8.00001 25.9974V26ZM8.00001 25.9974V10V8H34H36V12H38C38.7013 12 39.3745 12.1321 40 12.3692V10C40 6.94893 37.3137 4 34 4H10C6.6863 4 4.00001 6.94893 4.00001 10V24L4 25.3236L4.00001 29L4.00001 31.9406C4.00001 35.5498 8.17159 37.1574 11 35.0643L12.2923 33.7554C12.1025 33.1883 12 32.5961 12 32V28.3325L8.00001 32.9974V26C6.89544 26 8.00001 25.9974 8.00001 25.9974Z" fill="currentColor"/>
<path fill-rule="evenodd" clip-rule="evenodd" d="M36 33.9974C36 33.9974 36.8954 34 38 34C39.1046 34 40 33.9974 40 33.9974V18C40 16.983 40 16 40 16H18C16.8954 16 16 16 16 16V34.0032C16 34.0032 16.8954 34.0032 18 34.0032L26 34L33 38.9974L36 40.9974V33.9974ZM44 32V18C44 14.9489 41.3137 12 38 12H18C14.6863 12 12 14.9489 12 18V32C12 35.0511 14.6863 38 18 38H26L33 43.0643C35.8284 45.1574 40 43.5498 40 39.9406V37C42.3304 36.2416 44 34.4054 44 32Z" fill="currentColor"/>
<path d="M24 24.9976C24 23.893 23.1046 22.9976 22 22.9976C20.8954 22.9976 20 23.893 20 24.9976C20 26.1021 20.8954 26.9976 22 26.9976C23.1046 26.9976 24 26.1021 24 24.9976Z" fill="currentColor"/>
<path d="M30 24.9976C30 23.893 29.1046 22.9976 28 22.9976C26.8954 22.9976 26 23.893 26 24.9976C26 26.1021 26.8954 26.9976 28 26.9976C29.1046 26.9976 30 26.1021 30 24.9976Z" fill="currentColor"/>
<path d="M36 24.9976C36 23.893 35.1046 22.9976 34 22.9976C32.8954 22.9976 32 23.893 32 24.9976C32 26.1021 32.8954 26.9976 34 26.9976C35.1046 26.9976 36 26.1021 36 24.9976Z" fill="currentColor"/>
</svg>
