<svg width="144" height="144" viewBox="0 0 144 144" fill="none" xmlns="http://www.w3.org/2000/svg">
<path d="M32.4 117.6C27.9 113.1 24.375 107.9 21.825 102C19.275 96.1 18 90 18 83.7C18 77.4 19.2 71.175 21.6 65.025C24 58.875 27.9 53.1 33.3 47.7C36.8 44.2 41.125 41.2 46.275 38.7C51.425 36.2 57.525 34.225 64.575 32.775C71.625 31.325 79.675 30.45 88.725 30.15C97.775 29.85 107.9 30.2 119.1 31.2C119.9 41.8 120.15 51.55 119.85 60.45C119.55 69.35 118.725 77.375 117.375 84.525C116.025 91.675 114.125 97.925 111.675 103.275C109.225 108.625 106.2 113.1 102.6 116.7C97.3 122 91.675 125.875 85.725 128.325C79.775 130.775 73.7 132 67.5 132C61 132 54.65 130.725 48.45 128.175C42.25 125.625 36.9 122.1 32.4 117.6ZM49.2 115.2C52.1 116.9 55.075 118.125 58.125 118.875C61.175 119.625 64.3 120 67.5 120C72.1 120 76.65 119.075 81.15 117.225C85.65 115.375 89.95 112.4 94.05 108.3C95.85 106.5 97.675 103.975 99.525 100.725C101.375 97.475 102.975 93.225 104.325 87.975C105.675 82.725 106.7 76.375 107.4 68.925C108.1 61.475 108.2 52.6 107.7 42.3C102.8 42.1 97.275 42.025 91.125 42.075C84.975 42.125 78.85 42.6 72.75 43.5C66.65 44.4 60.85 45.85 55.35 47.85C49.85 49.85 45.35 52.6 41.85 56.1C37.35 60.6 34.25 65.05 32.55 69.45C30.85 73.85 30 78.1 30 82.2C30 88.1 31.125 93.275 33.375 97.725C35.625 102.175 37.6 105.3 39.3 107.1C43.5 99.1 49.05 91.425 55.95 84.075C62.85 76.725 70.9 70.7 80.1 66C72.9 72.3 66.625 79.425 61.275 87.375C55.925 95.325 51.9 104.6 49.2 115.2Z" fill="#3B3B3B"/>
</svg>
