<svg width="144" height="144" viewBox="0 0 144 144" fill="none" xmlns="http://www.w3.org/2000/svg">
<path d="M33.525 32.475C35.875 34.825 38.7 36 42 36C45.3 36 48.125 34.825 50.475 32.475C52.825 30.125 54 27.3 54 24C54 20.7 52.825 17.875 50.475 15.525C48.125 13.175 45.3 12 42 12C38.7 12 35.875 13.175 33.525 15.525C31.175 17.875 30 20.7 30 24C30 27.3 31.175 30.125 33.525 32.475Z" fill="#3B3B3B"/>
<path d="M30 90V132H54V94.5H45V55C45.5 46.5 48 43.5 51 42H33C29.7 42 26.875 43.175 24.525 45.525C22.175 47.875 21 50.7 21 54V90H30Z" fill="#3B3B3B"/>
<path d="M109.475 32.475C107.125 34.825 104.3 36 101 36C97.7 36 94.875 34.825 92.525 32.475C90.175 30.125 89 27.3 89 24C89 20.7 90.175 17.875 92.525 15.525C94.875 13.175 97.7 12 101 12C104.3 12 107.125 13.175 109.475 15.525C111.825 17.875 113 20.7 113 24C113 27.3 111.825 30.125 109.475 32.475Z" fill="#3B3B3B"/>
<path d="M113 90V132H89V94.5H98V55C97.5 46.5 95 43.5 92 42H110C113.3 42 116.125 43.175 118.475 45.525C120.825 47.875 122 50.7 122 54V90H113Z" fill="#3B3B3B"/>
<path d="M63.525 32.475C65.875 34.825 68.7 36 72 36C75.3 36 78.125 34.825 80.475 32.475C82.825 30.125 84 27.3 84 24C84 20.7 82.825 17.875 80.475 15.525C78.125 13.175 75.3 12 72 12C68.7 12 65.875 13.175 63.525 15.525C61.175 17.875 60 20.7 60 24C60 27.3 61.175 30.125 63.525 32.475Z" fill="#3B3B3B"/>
<path d="M60 90V132H84V90H93V54C93 50.7 91.825 47.875 89.475 45.525C87.125 43.175 84.3 42 81 42H63C59.7 42 56.875 43.175 54.525 45.525C52.175 47.875 51 50.7 51 54V90H60Z" fill="#3B3B3B"/>
</svg>
