<svg width="144" height="144" viewBox="0 0 144 144" fill="none" xmlns="http://www.w3.org/2000/svg">
<path d="M71.49 33.374C43.983 33.374 21.635 56.004 21.635 83.801C21.635 111.612 43.983 134.219 71.49 134.219C98.998 134.219 121.365 111.612 121.365 83.801C121.365 56.004 98.998 33.374 71.49 33.374ZM71.49 123.486C49.86 123.486 32.234 105.684 32.234 83.8C32.234 61.913 49.86 44.096 71.49 44.096C93.136 44.096 110.757 61.913 110.757 83.8C110.757 105.685 93.136 123.486 71.49 123.486ZM94.014 10.53H74.101L68.302 25.882H79.598L94.014 10.53ZM53.366 109.253H89.804V96.95H67.285V89.027H88.335V76.713H67.285V68.786L89.82 68.774V56.48H53.366V109.253Z" fill="#3B3B3B"/>
</svg>
