<svg width="144" height="144" viewBox="0 0 144 144" fill="none" xmlns="http://www.w3.org/2000/svg">
<path d="M132 72C132 60.1331 128.481 48.5328 121.888 38.6658C115.295 28.7989 105.925 21.1085 94.961 16.5673C83.9974 12.026 71.9335 10.8378 60.2946 13.1529C48.6557 15.468 37.9648 21.1825 29.5736 29.5736C21.1825 37.9648 15.468 48.6557 13.1529 60.2946C10.8378 71.9335 12.026 83.9975 16.5673 94.961C21.1085 105.925 28.7989 115.295 38.6658 121.888C48.5328 128.481 60.1331 132 72 132C87.913 132 103.174 125.679 114.426 114.426C125.679 103.174 132 87.913 132 72ZM61.4776 91.7015H91.0299L89.0149 105.134H44.6866L55.209 38.6418H69.9851L61.4776 91.7015ZM80.5075 65.2836H95.2836L93.2687 78.4925H78.4925L80.5075 65.2836ZM99.5373 38.6418L97.2985 51.8508H82.5224L84.7612 38.6418H99.5373Z" fill="#3B3B3B"/>
</svg>
