<svg width="144" height="144" viewBox="0 0 144 144" fill="none" xmlns="http://www.w3.org/2000/svg">
<path d="M108 54L103.2 58.2C101.8 59.5 100.15 60.15 98.2499 60.15C96.3499 60.15 94.6999 59.6 93.2999 58.5C91.8999 57.4 90.9499 56 90.4499 54.3C89.9499 52.6 89.9999 50.8 90.5999 48.9L92.9999 41.4L87.8999 38.4C86.2999 37.5 85.1749 36.2 84.5249 34.5C83.8749 32.8 83.7999 31.1 84.2999 29.4C84.7999 27.7 85.7999 26.375 87.2999 25.425C88.7999 24.475 90.4999 24 92.3999 24H98.3999L100.2 18.3C100.8 16.4 101.825 14.875 103.275 13.725C104.725 12.575 106.3 12 108 12C109.7 12 111.275 12.575 112.725 13.725C114.175 14.875 115.2 16.4 115.8 18.3L117.6 24H123.6C125.5 24 127.175 24.475 128.625 25.425C130.075 26.375 131.1 27.7 131.7 29.4C132.4 31.2 132.4 32.95 131.7 34.65C131 36.35 129.9 37.6 128.4 38.4L123 41.4L125.4 48.9C126 50.8 126.05 52.625 125.55 54.375C125.05 56.125 124.1 57.5 122.7 58.5C121.2 59.6 119.525 60.15 117.675 60.15C115.825 60.15 114.2 59.5 112.8 58.2L108 54ZM108 42C109.7 42 111.125 41.425 112.275 40.275C113.425 39.125 114 37.7 114 36C114 34.3 113.425 32.875 112.275 31.725C111.125 30.575 109.7 30 108 30C106.3 30 104.875 30.575 103.725 31.725C102.575 32.875 102 34.3 102 36C102 37.7 102.575 39.125 103.725 40.275C104.875 41.425 106.3 42 108 42ZM82.7999 107.4C85.0999 113.4 84.3499 119 80.5499 124.2C76.7499 129.4 71.3999 132 64.4999 132C61.1999 132 58.0749 131.15 55.1249 129.45C52.1749 127.75 49.9999 125.5 48.5999 122.7C40.2999 123.9 33.4249 121.775 27.9749 116.325C22.5249 110.875 20.2999 103.9 21.2999 95.4C18.2999 93.7 15.9999 91.375 14.3999 88.425C12.7999 85.475 11.9999 82.1 11.9999 78.3C11.9999 72.2 14.7749 67.275 20.3249 63.525C25.8749 59.775 31.2999 59 36.5999 61.2L45.8999 65.1C47.8999 62 50.5499 59.475 53.8499 57.525C57.1499 55.575 60.6999 54.5 64.4999 54.3V42H73.4999V55.5C77.1999 56.6 80.2499 58.325 82.6499 60.675C85.0499 63.025 87.0999 66.3 88.7999 70.5H102V79.5H89.6999C89.4999 83.3 88.4749 86.85 86.6249 90.15C84.7749 93.45 82.2999 96.1 79.1999 98.1L82.7999 107.4ZM45.5999 111C45.5999 108.3 45.8249 105.675 46.2749 103.125C46.7249 100.575 47.3999 98.1 48.2999 95.7C45.9999 96.8 43.5249 97.575 40.8749 98.025C38.2249 98.475 35.5999 98.6 32.9999 98.4C32.9999 102.3 34.1249 105.375 36.3749 107.625C38.6249 109.875 41.6999 111 45.5999 111ZM34.4999 86.4C37.6999 86.4 40.5249 86 42.9749 85.2C45.4249 84.4 48.5999 82.8 52.4999 80.4L34.4999 72.9C31.5999 71.7 29.1249 71.725 27.0749 72.975C25.0249 74.225 23.9999 76.2 23.9999 78.9C23.9999 81.5 24.8499 83.4 26.5499 84.6C28.2499 85.8 30.8999 86.4 34.4999 86.4ZM64.4999 120C66.9999 120 69.0249 119.125 70.5749 117.375C72.1249 115.625 72.4999 113.8 71.6999 111.9L63.5999 91.5C61.6999 94.7 60.2249 97.9 59.1749 101.1C58.1249 104.3 57.5999 107.2 57.5999 109.8C57.5999 113.1 58.1749 115.625 59.3249 117.375C60.4749 119.125 62.1999 120 64.4999 120ZM74.3999 86.7C75.3999 85.7 76.1999 84.375 76.7999 82.725C77.3999 81.075 77.6999 79.35 77.6999 77.55C77.6999 74.35 76.6499 71.65 74.5499 69.45C72.4499 67.25 69.8499 66.15 66.7499 66.15C64.9499 66.15 63.2499 66.45 61.6499 67.05C60.0499 67.65 58.6999 68.5 57.5999 69.6L69.2999 75L74.3999 86.7Z" fill="#3B3B3B"/>
</svg>
