<svg width="144" height="144" viewBox="0 0 144 144" fill="none" xmlns="http://www.w3.org/2000/svg">
<path d="M39.3336 69.188C35.0396 64.526 31.0084 59.6515 27.6783 54.1939C22.0498 44.9556 19.1059 31.6097 27.658 23.2002C36.809 14.2027 54.3158 19.6839 58.5005 30.9653C60.1097 35.3015 67.1159 33.4386 65.4888 29.0512C61.2153 17.535 49.9826 11.1018 37.8813 11.7561C24.4605 12.4822 15.7257 22.9503 15.0472 35.8373C14.3477 49.1677 21.0253 60.0456 29.761 70.0405C32.7858 69.5288 35.9736 69.2481 39.3336 69.188Z" fill="#3B3B3B"/>
<path d="M50.0221 80.2469C46.2127 79.789 42.4468 79.4872 38.674 79.4847C47.0173 87.8911 55.6298 96.0062 60.926 104.889C63.3164 108.893 69.5868 105.266 67.1883 101.243C62.4998 93.3844 56.3528 86.7375 50.0221 80.2469Z" fill="#3B3B3B"/>
<path d="M95.3613 84.96C95.0121 85.3307 94.6648 85.7014 94.3189 86.0689C83.5192 97.4857 71.8189 107.921 62.8335 120.926C60.173 124.78 66.4467 128.411 69.0826 124.592C79.6588 109.282 94.2134 97.4286 106.303 83.3993C102.777 84.159 99.1219 84.6823 95.3613 84.96Z" fill="#3B3B3B"/>
<path d="M78.3988 71.6523C83.0207 71.2879 83.0722 64.0414 78.4109 64.4088C69.094 65.1439 61.7809 56.9144 65.7283 47.698C68.5969 41.0018 77.1515 36.2823 83.3858 33.3214C90.0454 30.1574 97.7193 28.9731 105.03 29.3643C115.341 29.919 119.261 37.7866 117.754 47.2067C116.564 54.655 113.346 61.5613 109.173 67.9397C112.865 66.5626 116.513 64.8907 120.153 62.8894C126.382 49.8183 129.365 33.6888 116.365 25.276C109.273 20.6869 99.1877 21.7141 91.3675 23.1879C82.0543 24.9414 73.5062 29.7144 66.3549 35.7979C59.1685 41.9147 55.6218 50.201 58.557 59.4283C61.1903 67.7108 70.1428 72.3031 78.3988 71.6523Z" fill="#3B3B3B"/>
<path d="M131.592 84.3817C124.951 84.3096 118.578 85.1503 112.183 86.9436C109.26 87.7627 108.504 90.5112 109.23 92.7531C106.247 94.139 103.298 95.5977 100.387 97.1555C97.2227 98.8457 97.6687 102.41 99.7504 104.315C98.5757 104.745 97.4005 105.176 96.2252 105.604C93.3085 106.671 92.4165 109.778 93.4141 112.034L83.9403 113.312C80.1646 113.821 79.3599 120.143 82.8372 121.631C83.3742 121.86 83.9075 122.089 84.4432 122.316C86.2852 123.105 88.0355 122.674 89.3309 121.694C102.279 119.944 115.23 118.197 128.177 116.449C133.688 115.704 131.618 108.042 126.984 107.505C124.513 107.219 122.043 106.96 119.568 106.731C121.997 105.845 124.426 104.956 126.852 104.067C131.344 102.428 130.961 96.6132 126.824 95.3558C128.795 94.6511 130.774 93.961 132.784 93.3278C137.654 91.7945 136.826 84.4392 131.592 84.3817Z" fill="#3B3B3B"/>
<path d="M57.1049 113.737C55.707 112.851 54.3179 112.273 52.9376 111.887C56.2882 109.353 53.9895 104.192 50.0026 103.827C49.6894 103.8 49.3789 103.77 49.0683 103.742C49.9538 103.026 50.8432 102.308 51.7326 101.591C54.6765 99.2077 52.386 93.32 48.5268 93.8106C43.6845 94.4286 38.8448 95.0435 34.0021 95.6609C28.3978 96.3719 28.1964 105.05 33.5954 104.776C32.0437 106.81 33.1526 109.459 35.1116 110.853C33.0988 111.826 31.0947 112.812 29.0576 113.737C25.7974 115.222 26.3458 119.016 28.5186 120.992C25.5925 121.894 22.6638 122.795 19.735 123.696C14.1421 125.419 16.5141 134.212 22.14 132.48C33.4271 129.005 44.7143 125.531 56.0023 122.057C59.8166 120.881 60.4739 115.867 57.1049 113.737Z" fill="#3B3B3B"/>
<path d="M81.3468 83.2025C83.8568 83.441 86.4306 83.5643 89.04 83.5643C106.646 83.5643 125.789 77.9328 137.792 64.1413C140.492 61.0406 138.064 55.9749 134.89 55.9749C134.227 55.9749 133.534 56.195 132.848 56.6979C115.509 69.4198 99.3911 74.4579 81.1549 74.4579C74.9028 74.4579 68.3994 73.864 61.5116 72.7861C54.4941 71.6861 47.5213 70.8062 40.7177 70.8062C28.4811 70.8062 16.7744 73.654 6.2734 83.1993C4.84194 84.5011 6.15258 86.8548 7.66566 86.8548C7.94841 86.8548 8.23811 86.7732 8.52086 86.5828C18.4799 79.924 28.4809 77.8385 38.593 77.8385C52.5599 77.8385 66.7427 81.8135 81.3468 83.2025Z" fill="#3B3B3B"/>
</svg>
