<svg viewBox="0 0 48 48" fill="none" xmlns="http://www.w3.org/2000/svg">
<circle cx="24" cy="17" r="7" stroke="currentColor" stroke-width="4" fill="none"/>
<path d="M17 28H31C33.2091 28 35 29.7909 35 32V38H13V32C13 29.7909 14.7909 28 17 28Z" stroke="currentColor" stroke-width="4" fill="none"/>
<path d="M33.5 29.9998H38C40.2091 29.9998 42 31.7906 42 33.9998V35.9998C42 37.1043 41.1046 37.9998 40 37.9998H26" stroke="currentColor" stroke-width="4"  fill="none"/>
<path fill-rule="evenodd" clip-rule="evenodd" d="M31.2677 16.6126C31.2708 16.5237 31.2724 16.4344 31.2724 16.3447C31.2724 14.9903 30.9126 13.7196 30.283 12.6224C31.2189 12.2226 32.2585 12 33.3532 12C37.4608 12 40.7907 15.134 40.7907 19C40.7907 22.866 37.4608 26 33.3532 26C30.8226 26 28.5872 24.8105 27.2438 22.9932C28.4719 22.3485 29.4997 21.3758 30.2098 20.1919C30.7081 21.1841 31.8165 22 33.3532 22C35.4836 22 36.7907 20.4319 36.7907 19C36.7907 17.5681 35.4836 16 33.3532 16C32.5237 16 31.819 16.2377 31.2677 16.6126Z" fill="currentColor"/>
<path d="M14.5 29.9998L10 29.9998C7.79086 29.9998 6 31.7906 6 33.9998V35.9998C6 37.1043 6.89543 37.9998 8 37.9998H22" stroke="currentColor" stroke-width="4" fill="none"/>
<path fill-rule="evenodd" clip-rule="evenodd" d="M16.9307 16.7038C16.9252 16.5848 16.9225 16.4651 16.9225 16.3447C16.9225 14.989 17.2717 13.7172 17.8828 12.6193C17.0036 12.2215 16.0276 12 14.9999 12C11.1339 12 7.9999 15.134 7.9999 19C7.9999 22.866 11.1339 26 14.9999 26C17.3947 26 19.5087 24.7974 20.7708 22.9631C19.5362 22.2803 18.5147 21.2428 17.8351 19.9831C17.4281 21.1571 16.3124 22 14.9999 22C13.343 22 11.9999 20.6569 11.9999 19C11.9999 17.3431 13.343 16 14.9999 16C15.7353 16 16.4089 16.2646 16.9307 16.7038Z" fill="currentColor"/>
</svg>
