<svg width="65" height="64" viewBox="0 0 65 64" fill="none" xmlns="http://www.w3.org/2000/svg">
<path d="M15.2335 52.2668C13.2335 50.2668 11.6668 47.9557 10.5335 45.3335C9.40016 42.7113 8.8335 40.0002 8.8335 37.2002C8.8335 34.4002 9.36683 31.6335 10.4335 28.9002C11.5002 26.1668 13.2335 23.6002 15.6335 21.2002C17.1891 19.6446 19.1113 18.3113 21.4002 17.2002C23.6891 16.089 26.4002 15.2113 29.5335 14.5668C32.6668 13.9224 36.2446 13.5335 40.2668 13.4002C44.2891 13.2668 48.7891 13.4224 53.7668 13.8668C54.1224 18.5779 54.2335 22.9113 54.1002 26.8668C53.9668 30.8224 53.6002 34.389 53.0002 37.5668C52.4002 40.7446 51.5557 43.5224 50.4668 45.9002C49.3779 48.2779 48.0335 50.2668 46.4335 51.8668C44.0779 54.2224 41.5779 55.9446 38.9335 57.0335C36.2891 58.1224 33.5891 58.6668 30.8335 58.6668C27.9446 58.6668 25.1224 58.1002 22.3668 56.9668C19.6113 55.8335 17.2335 54.2668 15.2335 52.2668ZM22.7002 51.2002C23.9891 51.9557 25.3113 52.5002 26.6668 52.8335C28.0224 53.1668 29.4113 53.3335 30.8335 53.3335C32.8779 53.3335 34.9002 52.9224 36.9002 52.1002C38.9002 51.2779 40.8113 49.9557 42.6335 48.1335C43.4335 47.3335 44.2446 46.2113 45.0668 44.7668C45.8891 43.3224 46.6002 41.4335 47.2002 39.1002C47.8002 36.7668 48.2557 33.9446 48.5668 30.6335C48.8779 27.3224 48.9224 23.3779 48.7002 18.8002C46.5224 18.7113 44.0668 18.6779 41.3335 18.7002C38.6002 18.7224 35.8779 18.9335 33.1668 19.3335C30.4557 19.7335 27.8779 20.3779 25.4335 21.2668C22.9891 22.1557 20.9891 23.3779 19.4335 24.9335C17.4335 26.9335 16.0557 28.9113 15.3002 30.8668C14.5446 32.8224 14.1668 34.7113 14.1668 36.5335C14.1668 39.1557 14.6668 41.4557 15.6668 43.4335C16.6668 45.4113 17.5446 46.8002 18.3002 47.6002C20.1668 44.0446 22.6335 40.6335 25.7002 37.3668C28.7668 34.1002 32.3446 31.4224 36.4335 29.3335C33.2335 32.1335 30.4446 35.3002 28.0668 38.8335C25.6891 42.3668 23.9002 46.489 22.7002 51.2002Z" fill="currentColor"/>
</svg>
