<svg width="65" height="64" viewBox="0 0 65 64" fill="none" xmlns="http://www.w3.org/2000/svg">
<path d="M32.2735 14.8328C20.0482 14.8328 10.1157 24.8906 10.1157 37.2448C10.1157 49.6053 20.0482 59.6528 32.2735 59.6528C44.4993 59.6528 54.4402 49.6053 54.4402 37.2448C54.4402 24.8906 44.4993 14.8328 32.2735 14.8328ZM32.2735 54.8826C22.6602 54.8826 14.8264 46.9706 14.8264 37.2444C14.8264 27.5168 22.6602 19.5982 32.2735 19.5982C41.8939 19.5982 49.7255 27.5168 49.7255 37.2444C49.7255 46.971 41.8939 54.8826 32.2735 54.8826ZM42.2842 4.67993H33.4339L30.8566 11.503H35.8771L42.2842 4.67993ZM24.2184 48.5568H40.4131V43.0888H30.4046V39.5675H39.7602V34.0946H30.4046V30.5715L40.4202 30.5662V25.1022H24.2184V48.5568Z" fill="currentColor"/>
</svg>
