<svg width="134" height="27" viewBox="0 0 134 27" fill="none" xmlns="http://www.w3.org/2000/svg">
<path d="M9.95798 6.3999H7.19236V15.4511L7.13356 15.4708L2.78521 6.3999H0V20.6008H2.78521V11.5398L2.84402 11.5201L7.19285 20.6008H9.95847L9.95798 6.3999Z" fill="#1E1E1E"/>
<path d="M20.5394 12.1545H15.7608V8.61385H21.3601V6.3999H12.9761V20.6008H21.3797V18.3869H15.7613V14.368H20.5399L20.5394 12.1545Z" fill="#1E1E1E"/>
<path d="M32.5397 6.3999H23.3735V8.61385H26.5591V20.6008H29.3345V8.61385H32.5401L32.5397 6.3999Z" fill="#1E1E1E"/>
<path d="M73.4534 16.0265C73.4858 16.9629 73.3706 17.6247 73.1065 18.0116C72.8424 18.3986 72.3754 18.592 71.7046 18.592C71.0205 18.592 70.5006 18.348 70.1454 17.8599C69.7901 17.3719 69.6132 16.6265 69.6132 15.6239V11.358C69.6132 10.3686 69.7789 9.62966 70.1116 9.1416C70.4438 8.65354 70.9225 8.40951 71.5483 8.40951C72.2779 8.40951 72.789 8.61475 73.0825 9.02621C73.376 9.43768 73.5024 10.1099 73.4637 11.0428H76.1411L76.1705 10.9844C76.1446 9.40429 75.7457 8.21114 74.9735 7.40491C74.2017 6.59867 73.06 6.19556 71.5488 6.19556C70.1224 6.19556 68.9836 6.64925 68.1334 7.55614C67.2832 8.46352 66.8574 9.73965 66.8574 11.3845V15.6273C66.8574 17.2791 67.2974 18.5552 68.177 19.4557C69.0566 20.3562 70.2316 20.8065 71.7046 20.8065C73.1766 20.8065 74.2904 20.4097 75.0465 19.6168C75.8021 18.8233 76.1735 17.6463 76.1603 16.0859L76.1304 16.0275H73.4534V16.0265Z" fill="#1E1E1E"/>
<path d="M86.2445 12.1545H81.4659V8.61385H87.0657V6.3999H78.6812V20.6008H87.0853V18.3869H81.4659V14.368H86.2445V12.1545Z" fill="#1E1E1E"/>
<path d="M99.4414 6.3999H96.6763V15.4511L96.6179 15.4708L92.2691 6.3999H89.4839V20.6008H92.2691V11.5398L92.3274 11.5201L96.6763 20.6008H99.4414V6.3999Z" fill="#1E1E1E"/>
<path d="M110.971 6.3999H101.805V8.61385H104.991V20.6008H107.765V8.61385H110.971V6.3999Z" fill="#1E1E1E"/>
<path d="M118.108 14.9537C118.649 14.9537 119.064 15.1486 119.354 15.5385C119.644 15.9288 119.79 16.4783 119.79 17.1868V18.1526C119.79 18.6402 119.819 19.1179 119.877 19.5863C119.936 20.0543 120.079 20.3926 120.308 20.6003H123.181V20.3955C122.952 20.1942 122.793 19.8706 122.701 19.4248C122.61 18.9795 122.564 18.5616 122.564 18.1713V17.1667C122.564 16.3084 122.404 15.5935 122.081 15.021C121.759 14.4489 121.233 14.0394 120.503 13.792C121.141 13.4738 121.626 13.0456 121.959 12.5095C122.291 11.9728 122.458 11.334 122.458 10.5931C122.458 9.27961 122.059 8.2539 121.26 7.51591C120.462 6.77793 119.364 6.40869 117.963 6.40869H113.321V20.5998H116.096V14.9537H118.108ZM116.096 8.62363H117.962C118.523 8.62363 118.949 8.81561 119.243 9.19909C119.536 9.58306 119.682 10.0996 119.682 10.7502C119.682 11.3875 119.535 11.878 119.243 12.2232C118.949 12.5679 118.519 12.7402 117.952 12.7402H116.096V8.62363Z" fill="#1E1E1E"/>
<path d="M133.159 12.1545H128.381V8.61385H133.981V6.3999H125.596V20.6008H134V18.3869H128.381V14.368H133.159V12.1545Z" fill="#1E1E1E"/>
<path fill-rule="evenodd" clip-rule="evenodd" d="M48.7368 3.25928C42.1276 3.43653 36.8262 8.68245 36.8262 15.1274C36.8262 21.6843 42.3138 27 49.0828 27C55.8518 27 61.3399 21.6843 61.3399 15.1274C61.3399 12.4504 60.425 9.98018 58.882 7.99455C58.882 7.99455 57.9613 11.2229 57.4325 12.8698C57.6271 13.5704 57.7305 14.3065 57.7305 15.067C57.7305 19.7267 53.831 23.5045 49.0201 23.5045C44.2091 23.5045 40.3097 19.7272 40.3097 15.067C40.3097 10.4992 44.0568 6.77931 48.7359 6.63397C48.7363 5.18844 48.7368 3.25928 48.7368 3.25928Z" fill="#0062BC"/>
<path fill-rule="evenodd" clip-rule="evenodd" d="M50.3892 0H57.6065V6.93106L56.0375 12.0537H53.3704L53.98 6.93106H50.3896L50.3892 0Z" fill="#0062BC"/>
</svg>
