<svg id="icone" viewBox="0 0 24 24" fill="none" xmlns="http://www.w3.org/2000/svg">
<path d="M7.92718 6.56446C10.8072 3.5236 13.7715 2.00317 16.8203 2.00317C17.7847 1.96624 18.7336 2.25289 19.5152 2.81725C19.845 3.09571 20.1052 3.44686 20.2753 3.84292C20.4454 4.23897 20.5206 4.66905 20.4952 5.09912C20.4952 7.21572 19.2702 8.92529 16.8203 10.4395C14.486 11.8705 11.8713 12.7865 9.15213 13.1259L7.84551 13.2888C7.68219 13.8858 7.5733 14.3471 7.51886 14.6727C7.41672 15.1272 7.36199 15.5909 7.35554 16.0566C7.33732 16.6118 7.44541 17.1638 7.6717 17.6713C7.89799 18.1789 8.2366 18.6288 8.66215 18.9873C9.48 19.6854 10.5254 20.0618 11.602 20.0456C12.8172 20.0056 13.9992 19.64 15.0237 18.9873C16.0819 18.2972 17.0915 17.5356 18.0453 16.7079L18.6169 17.1963C17.8126 18.1612 16.8782 19.0105 15.8403 19.72C13.9641 21.1525 11.6783 21.951 9.31545 21.9994C8.56073 22.0102 7.81134 21.8719 7.11053 21.5924C6.40971 21.313 5.77135 20.8979 5.23229 20.3713C4.63364 19.7625 4.17104 19.0342 3.8749 18.2345C3.57876 17.4347 3.4558 16.5815 3.5141 15.731C3.5141 12.5832 4.9579 9.50058 7.84551 6.48305M14.9421 9.41374C16.6298 7.89412 17.4736 6.37451 17.4736 4.85489C17.5163 4.39633 17.4011 3.93694 17.147 3.55236C17.0076 3.38792 16.8317 3.25815 16.6333 3.17336C16.4348 3.08856 16.2192 3.05109 16.0037 3.06392C14.9578 3.11151 13.9675 3.54704 13.2271 4.28504C12.3125 5.08413 11.4932 5.98555 10.7854 6.9715C10.0851 8.0439 9.48374 9.1774 8.9888 10.3581C8.74381 10.9279 8.41716 11.5792 8.17217 12.3119C10.6372 12.0162 12.9619 11.0089 14.8604 9.41374" fill="currentColor"/>
</svg>
