<svg id="icone" viewBox="0 0 24 24" fill="none" xmlns="http://www.w3.org/2000/svg">
<path d="M18.6481 5.20651H15.552V8.2451H18.6481V5.20651Z" fill="currentColor"/>
<path d="M20.6077 2.49908H19.104V3.9748H20.6077V2.49908Z" fill="currentColor"/>
<path d="M22.0048 5.46796H20.288V7.15283H22.0048V5.46796Z" fill="currentColor"/>
<path d="M20.14 9.0062H17.6832V11.4173H20.14V9.0062Z" fill="currentColor"/>
<path d="M19.7552 12.0855H16.9136V9.00621H14.7232V4.93926C12.9869 4.11992 11.0261 3.87701 9.13678 4.24716C7.24745 4.61731 5.53203 5.58045 4.24935 6.99127C2.96666 8.40208 2.18629 10.184 2.02598 12.0683C1.86567 13.9525 2.33412 15.8368 3.36064 17.4368C4.38716 19.0369 5.91607 20.2658 7.71669 20.9384C9.51731 21.6109 11.492 21.6905 13.3427 21.1651C15.1934 20.6397 16.8198 19.5378 17.9766 18.0258C19.1333 16.5137 19.7576 14.6734 19.7552 12.7827C19.7552 12.5503 19.7552 12.3179 19.7552 12.0855ZM11.3488 19.3479C11.0937 19.3827 10.8367 19.4021 10.5792 19.406C9.23348 19.4502 7.91532 19.0252 6.85865 18.2062C5.80198 17.3872 5.07515 16.2273 4.80718 14.9323C4.52397 13.4557 4.79526 11.9284 5.57086 10.633C5.93678 9.97683 6.44054 9.40444 7.04881 8.95373C7.65707 8.50301 8.35595 8.18424 9.09918 8.01852C9.78979 7.8925 10.4997 7.91013 11.1829 8.07026C11.8661 8.23038 12.5075 8.52944 13.0656 8.94811C13.5026 9.25901 13.8663 9.65864 14.1319 10.1198C14.3975 10.581 14.5588 11.0929 14.6048 11.6207C14.6646 12.0312 14.6376 12.4493 14.5255 12.8491C14.4135 13.249 14.2188 13.6219 13.9536 13.9446C13.6571 14.2267 13.3039 14.4448 12.9164 14.5849C12.529 14.7249 12.116 14.7839 11.704 14.758H7.44158V13.5379H11.704C11.9514 13.5582 12.2005 13.5273 12.435 13.4472C12.6695 13.3672 12.8843 13.2397 13.0656 13.0731C13.2059 12.8712 13.3042 12.6441 13.355 12.4049C13.4058 12.1656 13.408 11.9189 13.3616 11.6788C13.328 11.3352 13.221 11.0024 13.0476 10.7021C12.8742 10.4018 12.6382 10.1407 12.3552 9.93579C11.9359 9.62991 11.4553 9.41478 10.945 9.30461C10.4348 9.19445 9.90656 9.19175 9.39518 9.2967C8.8262 9.41998 8.29011 9.65962 7.82189 10C7.35368 10.3404 6.96386 10.7738 6.6779 11.2721C6.06423 12.3067 5.85388 13.5246 6.0859 14.6999C6.54766 16.9658 8.62558 18.4183 11.1712 18.1278C11.9664 17.9887 12.7177 17.6695 13.3651 17.1955C14.0126 16.7214 14.5384 16.1056 14.9008 15.3971L16.0848 15.9781C15.6295 16.872 14.9613 17.645 14.1369 18.2316C13.3124 18.8182 12.3561 19.2011 11.3488 19.3479Z" fill="currentColor"/>
</svg>
