<svg viewBox="0 0 65 64" fill="none" xmlns="http://www.w3.org/2000/svg">
<path d="M48.8337 23.9999L46.7003 25.8666C46.0781 26.4444 45.3448 26.7333 44.5003 26.7333C43.6559 26.7333 42.9225 26.4888 42.3003 25.9999C41.6781 25.511 41.2559 24.8888 41.0337 24.1333C40.8114 23.3777 40.8337 22.5777 41.1003 21.7333L42.167 18.3999L39.9003 17.0666C39.1892 16.6666 38.6892 16.0888 38.4003 15.3333C38.1114 14.5777 38.0781 13.8221 38.3003 13.0666C38.5225 12.311 38.967 11.7221 39.6337 11.2999C40.3003 10.8777 41.0559 10.6666 41.9003 10.6666H44.567L45.367 8.13325C45.6337 7.28881 46.0892 6.61103 46.7337 6.09992C47.3781 5.58881 48.0781 5.33325 48.8337 5.33325C49.5892 5.33325 50.2892 5.58881 50.9337 6.09992C51.5781 6.61103 52.0337 7.28881 52.3003 8.13325L53.1003 10.6666H55.767C56.6114 10.6666 57.3559 10.8777 58.0003 11.2999C58.6448 11.7221 59.1003 12.311 59.367 13.0666C59.6781 13.8666 59.6781 14.6444 59.367 15.3999C59.0559 16.1555 58.567 16.711 57.9003 17.0666L55.5003 18.3999L56.567 21.7333C56.8337 22.5777 56.8559 23.3888 56.6337 24.1666C56.4114 24.9444 55.9892 25.5555 55.367 25.9999C54.7003 26.4888 53.9559 26.7333 53.1337 26.7333C52.3114 26.7333 51.5892 26.4444 50.967 25.8666L48.8337 23.9999ZM48.8337 18.6666C49.5892 18.6666 50.2225 18.411 50.7337 17.8999C51.2448 17.3888 51.5003 16.7555 51.5003 15.9999C51.5003 15.2444 51.2448 14.611 50.7337 14.0999C50.2225 13.5888 49.5892 13.3333 48.8337 13.3333C48.0781 13.3333 47.4448 13.5888 46.9337 14.0999C46.4225 14.611 46.167 15.2444 46.167 15.9999C46.167 16.7555 46.4225 17.3888 46.9337 17.8999C47.4448 18.411 48.0781 18.6666 48.8337 18.6666ZM37.6337 47.7333C38.6559 50.3999 38.3225 52.8888 36.6337 55.1999C34.9448 57.511 32.567 58.6666 29.5003 58.6666C28.0337 58.6666 26.6448 58.2888 25.3337 57.5333C24.0225 56.7777 23.0559 55.7777 22.4337 54.5333C18.7448 55.0666 15.6892 54.1221 13.267 51.6999C10.8448 49.2777 9.85588 46.1777 10.3003 42.3999C8.96699 41.6444 7.94477 40.611 7.23366 39.2999C6.52255 37.9888 6.16699 36.4888 6.16699 34.7999C6.16699 32.0888 7.40033 29.8999 9.86699 28.2333C12.3337 26.5666 14.7448 26.2221 17.1003 27.1999L21.2337 28.9333C22.1225 27.5555 23.3003 26.4333 24.767 25.5666C26.2337 24.6999 27.8114 24.2221 29.5003 24.1333V18.6666H33.5003V24.6666C35.1448 25.1555 36.5003 25.9221 37.567 26.9666C38.6337 28.011 39.5448 29.4666 40.3003 31.3333H46.167V35.3333H40.7003C40.6114 37.0221 40.1559 38.5999 39.3337 40.0666C38.5114 41.5333 37.4114 42.711 36.0337 43.5999L37.6337 47.7333ZM21.1003 49.3333C21.1003 48.1333 21.2003 46.9666 21.4003 45.8333C21.6003 44.6999 21.9003 43.5999 22.3003 42.5333C21.2781 43.0221 20.1781 43.3666 19.0003 43.5666C17.8225 43.7666 16.6559 43.8221 15.5003 43.7333C15.5003 45.4666 16.0003 46.8333 17.0003 47.8333C18.0003 48.8333 19.367 49.3333 21.1003 49.3333ZM16.167 38.3999C17.5892 38.3999 18.8448 38.2221 19.9337 37.8666C21.0225 37.511 22.4337 36.7999 24.167 35.7333L16.167 32.3999C14.8781 31.8666 13.7781 31.8777 12.867 32.4333C11.9559 32.9888 11.5003 33.8666 11.5003 35.0666C11.5003 36.2221 11.8781 37.0666 12.6337 37.5999C13.3892 38.1333 14.567 38.3999 16.167 38.3999ZM29.5003 53.3333C30.6114 53.3333 31.5114 52.9444 32.2003 52.1666C32.8892 51.3888 33.0559 50.5777 32.7003 49.7333L29.1003 40.6666C28.2559 42.0888 27.6003 43.511 27.1337 44.9333C26.667 46.3555 26.4337 47.6444 26.4337 48.7999C26.4337 50.2666 26.6892 51.3888 27.2003 52.1666C27.7114 52.9444 28.4781 53.3333 29.5003 53.3333ZM33.9003 38.5333C34.3448 38.0888 34.7003 37.4999 34.967 36.7666C35.2337 36.0333 35.367 35.2666 35.367 34.4666C35.367 33.0444 34.9003 31.8444 33.967 30.8666C33.0337 29.8888 31.8781 29.3999 30.5003 29.3999C29.7003 29.3999 28.9448 29.5333 28.2337 29.7999C27.5225 30.0666 26.9225 30.4444 26.4337 30.9333L31.6337 33.3333L33.9003 38.5333Z" fill="currentColor"/>
</svg>
