<svg viewBox="0 0 65 64" fill="none" xmlns="http://www.w3.org/2000/svg">
<path d="M17.9818 30.7501C16.0734 28.6781 14.2817 26.5117 12.8017 24.0861C10.3001 19.9802 8.99175 14.0486 12.7927 10.3111C16.8598 6.3122 24.6406 8.74829 26.5004 13.7622C27.2157 15.6895 30.3295 14.8615 29.6064 12.9115C27.707 7.79321 22.7147 4.93404 17.3364 5.22481C11.3716 5.54755 7.48942 10.2 7.1879 15.9276C6.87697 21.8522 9.84482 26.6868 13.7273 31.129C15.0717 30.9016 16.4885 30.7768 17.9818 30.7501Z" fill="currentColor"/>
<path d="M22.732 35.6654C21.039 35.4619 19.3652 35.3278 17.6885 35.3267C21.3966 39.0629 25.2244 42.6695 27.5782 46.6175C28.6406 48.3971 31.4275 46.7848 30.3615 44.9971C28.2777 41.5043 25.5457 38.5501 22.732 35.6654Z" fill="currentColor"/>
<path d="M42.8827 37.76C42.7275 37.9248 42.5732 38.0895 42.4194 38.2529C37.6196 43.327 32.4194 47.9649 28.4259 53.7447C27.2434 55.4576 30.0317 57.0714 31.2033 55.3744C35.9038 48.5699 42.3725 43.3016 47.7455 37.0664C46.1787 37.404 44.5541 37.6366 42.8827 37.76Z" fill="currentColor"/>
<path d="M35.3439 31.8451C37.3981 31.6832 37.4209 28.4625 35.3493 28.6258C31.2084 28.9525 27.9582 25.2949 29.7126 21.1988C30.9875 18.2227 34.7896 16.1251 37.5604 14.8092C40.5202 13.403 43.9308 12.8766 47.1799 13.0504C51.7627 13.297 53.5048 16.7937 52.8352 20.9804C52.3064 24.2908 50.8759 27.3602 49.0214 30.1951C50.6621 29.583 52.2837 28.84 53.9015 27.9505C56.6697 22.1411 57.9954 14.9725 52.2179 11.2334C49.0656 9.19382 44.5834 9.65035 41.1077 10.3054C36.9686 11.0847 33.1694 13.2061 29.9911 15.9099C26.7971 18.6284 25.2208 22.3112 26.5253 26.4122C27.6957 30.0933 31.6746 32.1344 35.3439 31.8451Z" fill="currentColor"/>
<path d="M58.9852 37.5029C56.0336 37.4708 53.2012 37.8445 50.3591 38.6415C49.06 39.0055 48.7238 40.2271 49.0468 41.2235C47.721 41.8394 46.41 42.4877 45.1163 43.1801C43.71 43.9313 43.9082 45.5155 44.8334 46.362C44.3114 46.5534 43.789 46.7449 43.2667 46.9349C41.9704 47.4092 41.574 48.7902 42.0173 49.7929L37.8068 50.3608C36.1287 50.5871 35.771 53.3968 37.3165 54.0581C37.5551 54.1599 37.7921 54.2617 38.0303 54.3624C38.8489 54.7132 39.6268 54.5215 40.2026 54.0863C45.9573 53.3084 51.7133 52.5317 57.4674 51.7549C59.9169 51.424 58.9968 48.0183 56.9372 47.78C55.8391 47.6528 54.7411 47.5376 53.6411 47.4358C54.721 47.0422 55.8002 46.647 56.8784 46.252C58.875 45.5233 58.705 42.9391 56.866 42.3802C57.742 42.067 58.6217 41.7603 59.5152 41.4789C61.6794 40.7974 61.3113 37.5284 58.9852 37.5029Z" fill="currentColor"/>
<path d="M25.8801 50.5498C25.2588 50.156 24.6414 49.899 24.028 49.7275C25.5171 48.6013 24.4955 46.3073 22.7235 46.1453C22.5843 46.1332 22.4463 46.1198 22.3083 46.1077C22.7019 45.7891 23.0971 45.4703 23.4924 45.1515C24.8008 44.0922 23.7828 41.4755 22.0676 41.6935C19.9155 41.9682 17.7645 42.2414 15.6122 42.5158C13.1214 42.8318 13.0319 46.6888 15.4314 46.567C14.7418 47.471 15.2346 48.6482 16.1053 49.2681C15.2107 49.7004 14.32 50.1385 13.4146 50.5498C11.9657 51.2099 12.2094 52.8958 13.1751 53.7743C11.8746 54.1749 10.5729 54.5753 9.27127 54.9759C6.78552 55.7417 7.83974 59.6498 10.3401 58.8798C15.3567 57.3355 20.3732 55.7913 25.39 54.2472C27.0853 53.7249 27.3775 51.4965 25.8801 50.5498Z" fill="currentColor"/>
<path d="M36.6542 36.9786C37.7697 37.0846 38.9136 37.1394 40.0734 37.1394C47.8982 37.1394 56.4061 34.6365 61.741 28.507C62.9409 27.1288 61.8616 24.8774 60.4511 24.8774C60.1565 24.8774 59.8484 24.9753 59.5434 25.1988C51.8375 30.853 44.6739 33.0921 36.5689 33.0921C33.7902 33.0921 30.8998 32.8281 27.8385 32.3491C24.7196 31.8602 21.6206 31.4691 18.5968 31.4691C13.1583 31.4691 7.95533 32.7348 3.2882 36.9772C2.652 37.5557 3.23451 38.6018 3.90699 38.6018C4.03266 38.6018 4.16141 38.5656 4.28707 38.481C8.71332 35.5215 13.1582 34.5946 17.6525 34.5946C23.86 34.5946 30.1635 36.3613 36.6542 36.9786Z" fill="currentColor"/>
</svg>
